<svg xmlns="http://www.w3.org/2000/svg" width="400" height="400" fill="none" viewBox="0 0 400 400">
  <circle cx="238" cy="277" r="3.75" fill="#03FF03" stroke="#000" stroke-width="1.5"/>
  <path stroke="#000" d="M235.5 277h5m-2.5-2.5v5"/>
  <rect width="10.5" height="4.5" x="232.75" y="266.25" stroke="#000" stroke-width="1.5" rx="1.25"/>
  <rect width="10.5" height="4.5" x="232.75" y="283.25" stroke="#000" stroke-width="1.5" rx="1.25"/>
  <path stroke="#000" stroke-dasharray=".5 1.5" stroke-linecap="round" d="M232 285.5h-8a2 2 0 0 1-2-2v-18m11.5 11.5h-4v0a2 2 0 0 1-2-2v-6.5"/>
  <path stroke="#000" stroke-dasharray=".5 1.5" stroke-linecap="round" d="M232 268.5h-8a2 2 0 0 1-2-2v0"/>
  <circle cx="233" cy="276" r="20" fill="#D9D9D9" fill-opacity=".02"/>
  <circle cx="233" cy="276" r="19" stroke="#000" stroke-opacity=".43" stroke-width="2"/>
  <path fill="#000" fill-opacity=".43" d="M154.907 283.24c-.896 0-1.824-.184-2.784-.552v5.424h-1.968V271.12h1.872v1.68c.736-.704 1.408-1.2 2.016-1.488a4.328 4.328 0 0 1 1.872-.432c1.264 0 2.232.48 2.904 1.44.688.96 1.032 2.312 1.032 4.056v1.392c0 1.664-.424 2.992-1.272 3.984-.832.992-2.056 1.488-3.672 1.488Zm.528-10.512c-.464 0-.944.12-1.44.36s-1.12.728-1.872 1.464v6.336c.464.208.912.36 1.344.456.432.08.856.12 1.272.12 1.088 0 1.872-.328 2.352-.984.48-.672.72-1.576.72-2.712v-1.392c0-1.248-.2-2.168-.6-2.76-.384-.592-.976-.888-1.776-.888Zm14.296.12c-.72 0-1.424.128-2.112.384-.672.256-1.392.744-2.16 1.464V283h-1.968v-11.88h1.872v1.92c.816-.8 1.56-1.36 2.232-1.68a5.01 5.01 0 0 1 2.136-.48v1.968Zm11.188 9.456c-.72.352-1.44.592-2.16.72a10.21 10.21 0 0 1-1.992.216c-1.712 0-2.992-.488-3.84-1.464-.832-.976-1.248-2.312-1.248-4.008v-1.44c0-1.648.416-2.968 1.248-3.96.848-.992 2.04-1.488 3.576-1.488.816 0 1.56.168 2.232.504.688.32 1.232.816 1.632 1.488.416.656.624 1.504.624 2.544 0 .672-.096 1.44-.288 2.304h-7.08v.048c0 1.216.248 2.136.744 2.76.512.624 1.328.936 2.448.936a8.2 8.2 0 0 0 1.68-.192 8.4 8.4 0 0 0 1.824-.6l.6 1.632Zm-4.416-9.696c-.928 0-1.632.304-2.112.912-.464.592-.72 1.432-.768 2.52h5.376c.048-.288.072-.56.072-.816 0-.896-.256-1.552-.768-1.968-.496-.432-1.096-.648-1.8-.648Zm10.798 8.88c1.6 0 2.4-.544 2.4-1.632 0-.464-.144-.832-.432-1.104-.288-.272-.816-.504-1.584-.696l-1.32-.336c-.976-.24-1.704-.656-2.184-1.248-.48-.608-.72-1.328-.72-2.16 0-.608.136-1.168.408-1.68.272-.528.704-.952 1.296-1.272.592-.32 1.36-.48 2.304-.48a8.2 8.2 0 0 1 1.848.216c.64.128 1.288.352 1.944.672l-.624 1.656c-1.168-.528-2.224-.792-3.168-.792-1.392 0-2.088.52-2.088 1.56 0 .4.128.744.384 1.032.256.288.736.52 1.44.696l1.32.336c1.056.256 1.832.672 2.328 1.248.496.576.744 1.32.744 2.232 0 .656-.144 1.256-.432 1.8-.272.528-.72.944-1.344 1.248-.608.304-1.432.456-2.472.456a10.05 10.05 0 0 1-2.064-.216 10.654 10.654 0 0 1-2.088-.696l.528-1.632c.688.272 1.312.472 1.872.6s1.128.192 1.704.192Zm10.336 0c1.6 0 2.4-.544 2.4-1.632 0-.464-.144-.832-.432-1.104-.288-.272-.816-.504-1.584-.696l-1.32-.336c-.976-.24-1.704-.656-2.184-1.248-.48-.608-.72-1.328-.72-2.16 0-.608.136-1.168.408-1.68.272-.528.704-.952 1.296-1.272.592-.32 1.36-.48 2.304-.48a8.2 8.2 0 0 1 1.848.216c.64.128 1.288.352 1.944.672l-.624 1.656c-1.168-.528-2.224-.792-3.168-.792-1.392 0-2.088.52-2.088 1.56 0 .4.128.744.384 1.032.256.288.736.52 1.44.696l1.32.336c1.056.256 1.832.672 2.328 1.248.496.576.744 1.32.744 2.232 0 .656-.144 1.256-.432 1.8-.272.528-.72.944-1.344 1.248-.608.304-1.432.456-2.472.456a10.05 10.05 0 0 1-2.064-.216 10.654 10.654 0 0 1-2.088-.696l.528-1.632c.688.272 1.312.472 1.872.6s1.128.192 1.704.192ZM158.594 178v-47.6h6.37a246.674 246.674 0 0 1 11.69 18.34 232.627 232.627 0 0 1 10.08 19.18l-.7-18.2V130.4h5.95V178h-6.37a440.422 440.422 0 0 0-10.15-19.88 223.968 223.968 0 0 0-11.34-18.97l.42 19.39V178h-5.95Zm80.74-29.05v10.43c0 5.927-1.493 10.64-4.48 14.14-2.94 3.453-7.187 5.18-12.74 5.18s-9.823-1.727-12.81-5.18c-2.94-3.5-4.41-8.213-4.41-14.14v-10.43c0-5.88 1.47-10.547 4.41-14 2.987-3.5 7.257-5.25 12.81-5.25 5.553 0 9.8 1.75 12.74 5.25 2.987 3.453 4.48 8.12 4.48 14Zm-6.3 0c0-4.34-.933-7.677-2.8-10.01-1.82-2.38-4.527-3.57-8.12-3.57-3.547 0-6.253 1.19-8.12 3.57-1.867 2.333-2.8 5.67-2.8 10.01v10.43c0 4.387.933 7.77 2.8 10.15 1.867 2.38 4.573 3.57 8.12 3.57 3.593 0 6.3-1.19 8.12-3.57 1.867-2.38 2.8-5.763 2.8-10.15v-10.43ZM130.691 240v-47.6h14.77c5.46 0 9.66 1.657 12.6 4.97 2.94 3.267 4.41 7.793 4.41 13.58v10.43c0 5.833-1.47 10.407-4.41 13.72-2.94 3.267-7.14 4.9-12.6 4.9h-14.77Zm14.63-41.86h-8.54v36.19h8.54c7.233 0 10.85-4.317 10.85-12.95v-10.43c0-8.54-3.617-12.81-10.85-12.81ZM199.094 240l-3.57-11.06h-18.06l-3.57 11.06h-5.95l15.82-47.6h5.74l15.89 47.6h-6.3Zm-17.22-24.78-2.66 8.19h14.49l-2.66-8.19-4.55-14.7-4.62 14.7Zm21.33-17.08v-5.74h33.81v5.74h-13.86V240h-6.09v-41.86h-13.86ZM265.949 240l-3.57-11.06h-18.06l-3.57 11.06h-5.95l15.82-47.6h5.74l15.89 47.6h-6.3Zm-17.22-24.78-2.66 8.19h14.49l-2.66-8.19-4.55-14.7-4.62 14.7Z"/>
  <g filter="url(#a)">
    <circle cx="200" cy="200" r="200" fill="#fff" fill-opacity=".5" style="mix-blend-mode:darken"/>
  </g>
  <circle cx="200" cy="200" r="195" stroke="#D9D9D9" stroke-width="10"/>
  <defs>
    <filter id="a" width="400" height="400" x="0" y="0" color-interpolation-filters="sRGB" filterUnits="userSpaceOnUse">
      <feFlood flood-opacity="0" result="BackgroundImageFix"/>
      <feBlend in="SourceGraphic" in2="BackgroundImageFix" result="shape"/>
      <feColorMatrix in="SourceAlpha" result="hardAlpha" values="0 0 0 0 0 0 0 0 0 0 0 0 0 0 0 0 0 0 127 0"/>
      <feMorphology in="SourceAlpha" radius="10" result="effect1_innerShadow_1_17"/>
      <feOffset/>
      <feGaussianBlur stdDeviation="5"/>
      <feComposite in2="hardAlpha" k2="-1" k3="1" operator="arithmetic"/>
      <feColorMatrix values="0 0 0 0 0 0 0 0 0 0 0 0 0 0 0 0 0 0 0.2 0"/>
      <feBlend in2="shape" result="effect1_innerShadow_1_17"/>
    </filter>
  </defs>
</svg>
