<svg xmlns="http://www.w3.org/2000/svg" width="400" height="400" fill="none" viewBox="0 0 400 400">
  <path fill="#000" fill-opacity=".43" d="m245 268.5 1.5 9-7.5-4.5 6-4.5Z"/>
  <path stroke="#8C8C8C" stroke-width="3" d="M243.904 274c-1.841-4.042-5.808-7-10.404-7-6.351 0-11.5 5.149-11.5 11.5s5.149 11.5 11.5 11.5c5.3 0 9.763-3.237 11.095-8"/>
  <circle cx="233" cy="278" r="20" fill="#D9D9D9" fill-opacity=".02"/>
  <circle cx="233" cy="278" r="19" stroke="#000" stroke-opacity=".43" stroke-width="2"/>
  <path fill="#000" fill-opacity=".43" d="M154.907 283.24c-.896 0-1.824-.184-2.784-.552v5.424h-1.968V271.12h1.872v1.68c.736-.704 1.408-1.2 2.016-1.488a4.328 4.328 0 0 1 1.872-.432c1.264 0 2.232.48 2.904 1.44.688.96 1.032 2.312 1.032 4.056v1.392c0 1.664-.424 2.992-1.272 3.984-.832.992-2.056 1.488-3.672 1.488Zm.528-10.512c-.464 0-.944.12-1.44.36s-1.12.728-1.872 1.464v6.336c.464.208.912.36 1.344.456.432.08.856.12 1.272.12 1.088 0 1.872-.328 2.352-.984.48-.672.72-1.576.72-2.712v-1.392c0-1.248-.2-2.168-.6-2.76-.384-.592-.976-.888-1.776-.888Zm14.296.12c-.72 0-1.424.128-2.112.384-.672.256-1.392.744-2.16 1.464V283h-1.968v-11.88h1.872v1.92c.816-.8 1.56-1.36 2.232-1.68a5.01 5.01 0 0 1 2.136-.48v1.968Zm11.188 9.456c-.72.352-1.44.592-2.16.72a10.21 10.21 0 0 1-1.992.216c-1.712 0-2.992-.488-3.84-1.464-.832-.976-1.248-2.312-1.248-4.008v-1.44c0-1.648.416-2.968 1.248-3.96.848-.992 2.04-1.488 3.576-1.488.816 0 1.56.168 2.232.504.688.32 1.232.816 1.632 1.488.416.656.624 1.504.624 2.544 0 .672-.096 1.44-.288 2.304h-7.08v.048c0 1.216.248 2.136.744 2.76.512.624 1.328.936 2.448.936a8.2 8.2 0 0 0 1.68-.192 8.4 8.4 0 0 0 1.824-.6l.6 1.632Zm-4.416-9.696c-.928 0-1.632.304-2.112.912-.464.592-.72 1.432-.768 2.52h5.376c.048-.288.072-.56.072-.816 0-.896-.256-1.552-.768-1.968-.496-.432-1.096-.648-1.8-.648Zm10.798 8.88c1.6 0 2.4-.544 2.4-1.632 0-.464-.144-.832-.432-1.104-.288-.272-.816-.504-1.584-.696l-1.32-.336c-.976-.24-1.704-.656-2.184-1.248-.48-.608-.72-1.328-.72-2.16 0-.608.136-1.168.408-1.68.272-.528.704-.952 1.296-1.272.592-.32 1.36-.48 2.304-.48a8.2 8.2 0 0 1 1.848.216c.64.128 1.288.352 1.944.672l-.624 1.656c-1.168-.528-2.224-.792-3.168-.792-1.392 0-2.088.52-2.088 1.56 0 .4.128.744.384 1.032.256.288.736.52 1.44.696l1.32.336c1.056.256 1.832.672 2.328 1.248.496.576.744 1.32.744 2.232 0 .656-.144 1.256-.432 1.8-.272.528-.72.944-1.344 1.248-.608.304-1.432.456-2.472.456a10.05 10.05 0 0 1-2.064-.216 10.654 10.654 0 0 1-2.088-.696l.528-1.632c.688.272 1.312.472 1.872.6s1.128.192 1.704.192Zm10.336 0c1.6 0 2.4-.544 2.4-1.632 0-.464-.144-.832-.432-1.104-.288-.272-.816-.504-1.584-.696l-1.32-.336c-.976-.24-1.704-.656-2.184-1.248-.48-.608-.72-1.328-.72-2.16 0-.608.136-1.168.408-1.68.272-.528.704-.952 1.296-1.272.592-.32 1.36-.48 2.304-.48a8.2 8.2 0 0 1 1.848.216c.64.128 1.288.352 1.944.672l-.624 1.656c-1.168-.528-2.224-.792-3.168-.792-1.392 0-2.088.52-2.088 1.56 0 .4.128.744.384 1.032.256.288.736.52 1.44.696l1.32.336c1.056.256 1.832.672 2.328 1.248.496.576.744 1.32.744 2.232 0 .656-.144 1.256-.432 1.8-.272.528-.72.944-1.344 1.248-.608.304-1.432.456-2.472.456a10.05 10.05 0 0 1-2.064-.216 10.654 10.654 0 0 1-2.088-.696l.528-1.632c.688.272 1.312.472 1.872.6s1.128.192 1.704.192ZM69.66 228.6c2.1 0 3.717-.45 4.85-1.35 1.133-.933 1.7-2.283 1.7-4.05 0-1.467-.4-2.7-1.2-3.7-.767-1-2.033-1.767-3.8-2.3l-4.05-1.2c-2.533-.767-4.4-1.917-5.6-3.45-1.2-1.567-1.8-3.483-1.8-5.75 0-1.733.334-3.3 1-4.7.7-1.4 1.8-2.517 3.3-3.35 1.534-.833 3.534-1.25 6-1.25 1.5 0 3.05.183 4.65.55 1.6.333 3.217.883 4.85 1.65l-1.4 3.75c-1.6-.7-3.05-1.2-4.35-1.5-1.267-.333-2.483-.5-3.65-.5-1.9 0-3.383.4-4.45 1.2-1.033.767-1.55 2.05-1.55 3.85 0 1.3.35 2.4 1.05 3.3.7.867 1.95 1.583 3.75 2.15l4.05 1.2c5.067 1.5 7.6 4.733 7.6 9.7 0 2.867-.867 5.2-2.6 7-1.733 1.767-4.517 2.65-8.35 2.65-1.566 0-3.233-.183-5-.55-1.733-.4-3.533-1.017-5.4-1.85l1.35-3.7c1.767.8 3.35 1.367 4.75 1.7 1.433.333 2.867.5 4.3.5Zm37.343-.65V232h-19v-34h18.5v4.1h-14.15v10.65h12.65v4.1h-12.65v11.1h14.65Zm11.913-9.25V232h-4.35v-34h10.65c3.2 0 5.666.85 7.4 2.55 1.766 1.667 2.65 3.9 2.65 6.7v2.15c0 2-.467 3.733-1.4 5.2-.9 1.467-2.2 2.55-3.9 3.25 1.433 2.3 2.766 4.633 4 7a107.798 107.798 0 0 1 3.4 7.15h-5a112.54 112.54 0 0 0-6.65-13.3h-6.8Zm6.3-16.7h-6.3v12.7h6.3c1.7 0 3.05-.467 4.05-1.4 1-.967 1.5-2.267 1.5-3.9v-2.15c0-1.667-.5-2.95-1.5-3.85-1-.933-2.35-1.4-4.05-1.4Zm40.399-4-10.85 34h-4.4l-10.9-34h4.6l5.4 17.25 3.25 10.9 3.3-10.95 5.3-17.2h4.3Zm25.324 29.95V232h-19v-34h18.5v4.1h-14.15v10.65h12.65v4.1h-12.65v11.1h14.65Zm11.912-9.25V232h-4.35v-34h10.65c3.2 0 5.667.85 7.4 2.55 1.767 1.667 2.65 3.9 2.65 6.7v2.15c0 2-.466 3.733-1.4 5.2-.9 1.467-2.2 2.55-3.9 3.25 1.434 2.3 2.767 4.633 4 7a106.803 106.803 0 0 1 3.4 7.15h-5a112.387 112.387 0 0 0-6.65-13.3h-6.8Zm6.3-16.7h-6.3v12.7h6.3c1.7 0 3.05-.467 4.05-1.4 1-.967 1.5-2.267 1.5-3.9v-2.15c0-1.667-.5-2.95-1.5-3.85-1-.933-2.35-1.4-4.05-1.4Zm30.268 30v-34h10.55c3.9 0 6.9 1.183 9 3.55 2.1 2.333 3.15 5.567 3.15 9.7v7.45c0 4.167-1.05 7.433-3.15 9.8-2.1 2.333-5.1 3.5-9 3.5h-10.55Zm10.45-29.9h-6.1v25.85h6.1c5.167 0 7.75-3.083 7.75-9.25v-7.45c0-6.1-2.583-9.15-7.75-9.15Zm38.41 29.9-2.55-7.9h-12.9l-2.55 7.9h-4.25l11.3-34h4.1l11.35 34h-4.5Zm-12.3-17.7-1.9 5.85h10.35l-1.9-5.85-3.25-10.5-3.3 10.5Zm15.235-12.2V198h24.15v4.1h-9.9V232h-4.35v-29.9h-9.9Zm44.818 29.9-2.55-7.9h-12.9l-2.55 7.9h-4.25l11.3-34h4.1l11.35 34h-4.5Zm-12.3-17.7-1.9 5.85h10.35l-1.9-5.85-3.25-10.5-3.3 10.5ZM158.594 178v-47.6h6.37a246.674 246.674 0 0 1 11.69 18.34 232.627 232.627 0 0 1 10.08 19.18l-.7-18.2V130.4h5.95V178h-6.37a440.422 440.422 0 0 0-10.15-19.88 223.968 223.968 0 0 0-11.34-18.97l.42 19.39V178h-5.95Zm80.74-29.05v10.43c0 5.927-1.493 10.64-4.48 14.14-2.94 3.453-7.187 5.18-12.74 5.18s-9.823-1.727-12.81-5.18c-2.94-3.5-4.41-8.213-4.41-14.14v-10.43c0-5.88 1.47-10.547 4.41-14 2.987-3.5 7.257-5.25 12.81-5.25 5.553 0 9.8 1.75 12.74 5.25 2.987 3.453 4.48 8.12 4.48 14Zm-6.3 0c0-4.34-.933-7.677-2.8-10.01-1.82-2.38-4.527-3.57-8.12-3.57-3.547 0-6.253 1.19-8.12 3.57-1.867 2.333-2.8 5.67-2.8 10.01v10.43c0 4.387.933 7.77 2.8 10.15 1.867 2.38 4.573 3.57 8.12 3.57 3.593 0 6.3-1.19 8.12-3.57 1.867-2.38 2.8-5.763 2.8-10.15v-10.43Z"/>
  <g filter="url(#a)">
    <circle cx="200" cy="200" r="200" fill="#fff" fill-opacity=".5" style="mix-blend-mode:darken"/>
  </g>
  <circle cx="200" cy="200" r="195" stroke="#D9D9D9" stroke-width="10"/>
  <defs>
    <filter id="a" width="400" height="400" x="0" y="0" color-interpolation-filters="sRGB" filterUnits="userSpaceOnUse">
      <feFlood flood-opacity="0" result="BackgroundImageFix"/>
      <feBlend in="SourceGraphic" in2="BackgroundImageFix" result="shape"/>
      <feColorMatrix in="SourceAlpha" result="hardAlpha" values="0 0 0 0 0 0 0 0 0 0 0 0 0 0 0 0 0 0 127 0"/>
      <feMorphology in="SourceAlpha" radius="10" result="effect1_innerShadow_1_2"/>
      <feOffset/>
      <feGaussianBlur stdDeviation="5"/>
      <feComposite in2="hardAlpha" k2="-1" k3="1" operator="arithmetic"/>
      <feColorMatrix values="0 0 0 0 0 0 0 0 0 0 0 0 0 0 0 0 0 0 0.2 0"/>
      <feBlend in2="shape" result="effect1_innerShadow_1_2"/>
    </filter>
  </defs>
</svg>
